<svg xmlns="http://www.w3.org/2000/svg" width="64" height="48" viewBox="0 0 64 48">
  <rect width="64" height="48" fill="#f5f0e8"/>
  <!-- 等高線イメージ: 波状の線を標高カラーで描画 -->
  <path d="M0,42 Q16,40 32,41 Q48,42 64,40" stroke="#0006FB" stroke-width="1.2" fill="none"/>
  <path d="M0,37 Q16,34 32,36 Q48,38 64,35" stroke="#0092FB" stroke-width="1.2" fill="none"/>
  <path d="M0,31 Q16,27 32,30 Q48,33 64,29" stroke="#00E7FB" stroke-width="1.5" fill="none"/>
  <path d="M0,24 Q16,20 32,23 Q48,26 64,21" stroke="#8AF708" stroke-width="1.2" fill="none"/>
  <path d="M0,18 Q16,14 32,17 Q48,20 64,15" stroke="#F2F90B" stroke-width="1.5" fill="none"/>
  <path d="M0,11 Q16,8 32,11 Q48,14 64,9" stroke="#F28A09" stroke-width="1.2" fill="none"/>
  <path d="M0,5 Q16,3 32,5 Q48,7 64,4" stroke="#F2480B" stroke-width="1.5" fill="none"/>
</svg>
